<svg xmlns="http://www.w3.org/2000/svg" width="150.764" height="217.326" viewBox="0 0 150.764 217.326">
  <g id="Group_149" data-name="Group 149" transform="translate(-2666.128 -3738.337)">
    <g id="Path_105" data-name="Path 105" transform="translate(2689.818 3801.82) rotate(-20)" fill="none">
      <path d="M36.9-11.8C62.876-15.061,81.288,9.659,78.024,43.415l-4.39,45.4c-3.264,33.757-26.968,63.768-52.945,67.032S-23.7,134.4-20.437,100.641l4.39-45.4C-12.782,21.479,10.922-8.532,36.9-11.8Z" stroke="none"/>
      <path d="M 41.45423126220703 -11.08589172363281 C 40.00155258178711 -11.08589172363281 38.51094055175781 -10.99113464355469 37.02375793457031 -10.80424499511719 C 30.82307434082031 -10.02511596679688 24.64670944213867 -7.685684204101562 18.66621017456055 -3.85089111328125 C 12.86125564575195 -0.128662109375 7.487415313720703 4.8358154296875 2.693939208984375 10.9046630859375 C -2.109832763671875 16.98654174804688 -6.085540771484375 23.86724853515625 -9.122745513916016 31.35561370849609 C -12.26774215698242 39.10977172851562 -14.2622184753418 47.17654418945312 -15.0507926940918 55.33188629150391 L -19.44119644165039 100.7367935180664 C -19.8776741027832 105.2507019042969 -19.92781448364258 109.7011413574219 -19.5902214050293 113.9645233154297 C -19.26240158081055 118.1046371459961 -18.56663131713867 122.1027221679688 -17.52226638793945 125.8477249145508 C -16.49926376342773 129.5160827636719 -15.13628768920898 132.9624786376953 -13.47119522094727 136.0911407470703 C -11.82331466674805 139.1874084472656 -9.872951507568359 141.9851989746094 -7.674221038818359 144.4067687988281 C -4.553356170654297 147.8439483642578 -0.9579238891601562 150.5090026855469 3.012210845947266 152.3278350830078 C 7.087913513183594 154.1950378417969 11.50246047973633 155.1417999267578 16.13323211669922 155.1417999267578 C 17.58591461181641 155.1417999267578 19.07653045654297 155.0470428466797 20.5637092590332 154.8601531982422 C 46.06132507324219 151.6563110351562 69.42186737060547 121.9877471923828 72.63825988769531 88.7239990234375 L 77.02864074707031 43.31911468505859 C 77.46511840820312 38.80520629882812 77.5152587890625 34.35477447509766 77.17768859863281 30.09138488769531 C 76.84984588623047 25.95127105712891 76.15409851074219 21.95317840576172 75.10973358154297 18.20820617675781 C 74.08673095703125 14.53981018066406 72.7237548828125 11.09346008300781 71.05866241455078 7.964797973632812 C 69.41080474853516 4.868499755859375 67.46041870117188 2.070724487304688 65.26171112060547 -0.3508453369140625 C 62.14082336425781 -3.788040161132812 58.54539108276367 -6.45306396484375 54.57525634765625 -8.27191162109375 C 50.49954986572266 -10.13912963867188 46.08500671386719 -11.08589172363281 41.45423126220703 -11.08589172363281 M 41.45422744750977 -12.08587646484375 C 64.99140167236328 -12.08587646484375 81.09385681152344 11.66748046875 78.02400207519531 43.41535949707031 L 73.63362121582031 88.82025146484375 C 70.36955261230469 122.5769805908203 46.66516494750977 152.5882873535156 20.68839263916016 155.8523559570312 C -5.288444519042969 159.116455078125 -23.70063400268555 134.3972778320312 -20.43656539916992 100.6405487060547 L -16.0461540222168 55.23563385009766 C -12.78208541870117 21.47891235351562 10.92230224609375 -8.532394409179688 36.89907455444336 -11.79644775390625 C 38.44493103027344 -11.99069213867188 39.96492004394531 -12.08587646484375 41.45422744750977 -12.08587646484375 Z" stroke="none" fill="#fff"/>
    </g>
    <g id="Path_106" data-name="Path 106" transform="translate(2723.954 3751.789) rotate(-1)" fill="none">
      <path d="M36.9-11.8C62.876-15.061,81.288,9.659,78.024,43.415l-4.39,45.4c-3.264,33.757-26.968,63.768-52.945,67.032S-23.7,134.4-20.437,100.641l4.39-45.4C-12.782,21.479,10.922-8.532,36.9-11.8Z" stroke="none"/>
      <path d="M 41.45423126220703 -11.08589172363281 C 40.00155258178711 -11.08589172363281 38.51094055175781 -10.99113464355469 37.02375793457031 -10.80424499511719 C 30.82307434082031 -10.02511596679688 24.64670944213867 -7.685684204101562 18.66621017456055 -3.85089111328125 C 12.86125564575195 -0.128662109375 7.487415313720703 4.8358154296875 2.693939208984375 10.9046630859375 C -2.109832763671875 16.98654174804688 -6.085540771484375 23.86724853515625 -9.122745513916016 31.35561370849609 C -12.26774215698242 39.10977172851562 -14.2622184753418 47.17654418945312 -15.0507926940918 55.33188629150391 L -19.44119644165039 100.7367935180664 C -19.8776741027832 105.2507019042969 -19.92781448364258 109.7011413574219 -19.5902214050293 113.9645233154297 C -19.26240158081055 118.1046371459961 -18.56663131713867 122.1027221679688 -17.52226638793945 125.8477249145508 C -16.49926376342773 129.5160827636719 -15.13628768920898 132.9624786376953 -13.47119522094727 136.0911407470703 C -11.82331466674805 139.1874084472656 -9.872951507568359 141.9851989746094 -7.674221038818359 144.4067687988281 C -4.553356170654297 147.8439483642578 -0.9579238891601562 150.5090026855469 3.012210845947266 152.3278350830078 C 7.087913513183594 154.1950378417969 11.50246047973633 155.1417999267578 16.13323211669922 155.1417999267578 C 17.58591461181641 155.1417999267578 19.07653045654297 155.0470428466797 20.5637092590332 154.8601531982422 C 46.06132507324219 151.6563110351562 69.42186737060547 121.9877471923828 72.63825988769531 88.7239990234375 L 77.02864074707031 43.31911468505859 C 77.46511840820312 38.80520629882812 77.5152587890625 34.35477447509766 77.17768859863281 30.09138488769531 C 76.84984588623047 25.95127105712891 76.15409851074219 21.95317840576172 75.10973358154297 18.20820617675781 C 74.08673095703125 14.53981018066406 72.7237548828125 11.09346008300781 71.05866241455078 7.964797973632812 C 69.41080474853516 4.868499755859375 67.46041870117188 2.070724487304688 65.26171112060547 -0.3508453369140625 C 62.14082336425781 -3.788040161132812 58.54539108276367 -6.45306396484375 54.57525634765625 -8.27191162109375 C 50.49954986572266 -10.13912963867188 46.08500671386719 -11.08589172363281 41.45423126220703 -11.08589172363281 M 41.45422744750977 -12.08587646484375 C 64.99140167236328 -12.08587646484375 81.09385681152344 11.66748046875 78.02400207519531 43.41535949707031 L 73.63362121582031 88.82025146484375 C 70.36955261230469 122.5769805908203 46.66516494750977 152.5882873535156 20.68839263916016 155.8523559570312 C -5.288444519042969 159.116455078125 -23.70063400268555 134.3972778320312 -20.43656539916992 100.6405487060547 L -16.0461540222168 55.23563385009766 C -12.78208541870117 21.47891235351562 10.92230224609375 -8.532394409179688 36.89907455444336 -11.79644775390625 C 38.44493103027344 -11.99069213867188 39.96492004394531 -12.08587646484375 41.45422744750977 -12.08587646484375 Z" stroke="none" fill="#fff"/>
    </g>
  </g>
</svg>
