<svg width="113" height="41" viewBox="0 0 113 41" fill="none" xmlns="http://www.w3.org/2000/svg">
<path d="M75.8848 8.87028C75.8558 8.95843 75.8179 9.04496 75.7978 9.13553C75.2932 11.4444 72.5593 12.3186 70.8183 10.7238C70.3137 10.2621 69.8454 9.75742 69.3183 9.32396C61.0479 2.52682 48.4928 7.03452 46.3907 17.5501C44.8037 25.4875 50.2515 33.2753 58.2076 34.3824C63.0009 35.0496 67.1252 33.6263 70.5467 30.1893C71.1721 29.5609 71.8798 29.1566 72.7745 29.138C74.2188 29.108 75.4335 30.0469 75.7833 31.4492C75.8123 31.5649 75.851 31.6789 75.8856 31.7929C75.8856 32.0347 75.8856 32.2773 75.8856 32.5191C75.7035 33.1241 75.5133 33.7209 75.0611 34.1972C71.9838 37.4328 68.26 39.4683 63.8722 40.2641C63.0847 40.4064 62.2851 40.4832 61.4912 40.5908C60.6868 40.5908 59.8824 40.5908 59.0788 40.5908C58.3252 40.4857 57.5684 40.4008 56.818 40.2738C45.808 38.4073 38.3613 27.6346 40.4529 16.6079C42.434 6.15951 52.0876 -0.977285 62.5874 0.231724C66.5973 0.693493 70.1614 2.20657 73.2557 4.79685C74.3567 5.71877 75.5552 6.59702 75.884 8.14406C75.8848 8.38586 75.8848 8.62848 75.8848 8.87028Z" fill="url(#paint0_linear_364_266)"/>
<path d="M78.8516 2.81714C78.8846 2.73142 78.9322 2.64893 78.9499 2.56078C79.2247 1.17709 80.2419 0.241425 81.7201 0.12578C82.8107 0.0400579 84.0455 0.616662 84.5935 1.93242C85.5285 4.17495 86.4336 6.42961 87.3517 8.67942C90.1405 15.5154 92.9292 22.3505 95.7188 29.1865C95.7736 29.3215 95.8365 29.4534 95.9348 29.6741C96.0388 29.4558 96.1162 29.3126 96.1774 29.163C99.8214 20.2261 103.468 11.2907 107.1 2.3489C107.488 1.39221 108.036 0.619089 109.043 0.287521C110.2 -0.0933779 111.255 0.137911 112.111 1.00888C112.976 1.88956 113.229 2.96837 112.785 4.12885C112.114 5.88374 111.384 7.61598 110.676 9.35711C106.73 19.0551 102.78 28.7514 98.8445 38.4534C98.3738 39.6131 97.6331 40.3983 96.366 40.6054C96.3153 40.6134 96.2693 40.6482 96.2202 40.6709C96.0324 40.6709 95.8446 40.6709 95.6576 40.6709C95.5963 40.645 95.5383 40.6054 95.4746 40.594C94.3148 40.3919 93.5579 39.7069 93.1235 38.6297C92.7568 37.7215 92.3844 36.8158 92.0176 35.9076C87.6289 25.0395 83.2403 14.1705 78.8516 3.30236C78.8516 3.13981 78.8516 2.97888 78.8516 2.81714Z" fill="url(#paint1_linear_364_266)"/>
<path d="M36.2702 40.6702C35.9212 40.6702 35.5714 40.6702 35.2224 40.6702C35.1789 40.6435 35.1378 40.6055 35.0902 40.5925C33.5846 40.1688 32.7576 39.0835 32.7238 37.5332C32.7109 36.9299 32.669 36.3234 32.5811 35.7266C31.4044 27.7196 23.5426 22.6046 15.7654 24.7759C10.0896 26.361 6.10065 31.5755 6.03939 37.492C6.02247 39.0827 5.19873 40.1639 3.6786 40.5925C3.63105 40.6063 3.59075 40.6443 3.54642 40.6702C3.19742 40.6702 2.84761 40.6702 2.49861 40.6702C2.36562 40.6192 2.23344 40.5626 2.09803 40.5173C1.26865 40.2391 0.663342 39.7046 0.29258 38.9153C0.168455 38.6516 0.0959145 38.3645 0 38.088C0 37.5502 0 37.0116 0 36.4738C0.0902725 35.7848 0.148305 35.0893 0.274848 34.4068C1.42018 28.2396 4.75381 23.6397 10.1968 20.5569C10.3088 20.493 10.4184 20.4251 10.5877 20.324C10.3555 20.1954 10.171 20.0984 9.99123 19.9933C4.55634 16.811 1.25576 12.1456 0.240189 5.8984C0.139439 5.27813 0.0789884 4.65058 0 4.02707C0 3.56934 0 3.11242 0 2.6547C0.0257921 2.59324 0.0612564 2.5342 0.0765705 2.47032C0.468289 0.870703 1.79497 -0.144218 3.28608 0.0167138C4.90454 0.191393 5.99506 1.46348 6.041 3.15367C6.06277 3.94215 6.10951 4.74519 6.27716 5.51265C7.46038 10.9261 10.7118 14.5426 16.0524 15.919C21.4978 17.3229 26.1637 15.6805 29.7923 11.3668C31.7977 8.9836 32.7198 6.15314 32.7415 3.03075C32.752 1.51524 33.7845 0.323212 35.2877 0.051488C36.6385 -0.19274 38.0241 0.605449 38.5399 1.93172C38.631 2.16705 38.6939 2.41371 38.7696 2.6547C38.7696 3.11242 38.7696 3.56934 38.7696 4.02707C38.7406 4.18395 38.7035 4.34003 38.685 4.49773C38.6181 5.0711 38.5923 5.65094 38.4891 6.21703C37.3559 12.4198 34.0037 17.0358 28.535 20.1307C28.435 20.1874 28.3375 20.2488 28.248 20.303C28.2577 20.3467 28.2569 20.3661 28.2642 20.3709C28.4366 20.4728 28.6107 20.5715 28.784 20.6726C34.0319 23.7343 37.3035 28.2137 38.4496 34.2094C38.5923 34.9575 38.664 35.7185 38.7688 36.4738C38.7688 37.0116 38.7688 37.5502 38.7688 38.088C38.7325 38.2012 38.6947 38.3144 38.66 38.4284C38.3545 39.4466 37.7081 40.1421 36.7087 40.506C36.562 40.5594 36.4169 40.6152 36.2702 40.6702Z" fill="url(#paint2_linear_364_266)"/>
<defs>
<linearGradient id="paint0_linear_364_266" x1="57.992" y1="40.5892" x2="57.992" y2="0.0981835" gradientUnits="userSpaceOnUse">
<stop stop-color="#FEC607"/>
<stop offset="1" stop-color="#FC04FA"/>
</linearGradient>
<linearGradient id="paint1_linear_364_266" x1="95.9255" y1="40.6701" x2="95.9255" y2="0.110731" gradientUnits="userSpaceOnUse">
<stop stop-color="#41DCE6"/>
<stop offset="1" stop-color="#01D77F"/>
</linearGradient>
<linearGradient id="paint2_linear_364_266" x1="19.3845" y1="40.6703" x2="19.3845" y2="0.000363618" gradientUnits="userSpaceOnUse">
<stop stop-color="#8943E6"/>
<stop offset="1" stop-color="#007AFF"/>
</linearGradient>
</defs>
</svg>
